<?xml version="1.0" encoding="UTF-8" standalone="no"?>
<!-- Created with Inkscape (http://www.inkscape.org/) -->

<svg
   xmlns:dc="http://purl.org/dc/elements/1.1/"
   xmlns:cc="http://creativecommons.org/ns#"
   xmlns:rdf="http://www.w3.org/1999/02/22-rdf-syntax-ns#"
   xmlns:svg="http://www.w3.org/2000/svg"
   xmlns="http://www.w3.org/2000/svg"
   xmlns:sodipodi="http://sodipodi.sourceforge.net/DTD/sodipodi-0.dtd"
   xmlns:inkscape="http://www.inkscape.org/namespaces/inkscape"
   width="153.45833mm"
   height="108.89176mm"
   viewBox="0 0 543.74998 385.83695"
   id="svg2"
   version="1.1"
   inkscape:version="0.91 r13725"
   sodipodi:docname="fds_figure-3.25.svg">
  <defs
     id="defs4" />
  <sodipodi:namedview
     id="base"
     pagecolor="#ffffff"
     bordercolor="#666666"
     borderopacity="1.0"
     inkscape:pageopacity="0.0"
     inkscape:pageshadow="2"
     inkscape:zoom="0.98994949"
     inkscape:cx="474.54649"
     inkscape:cy="136.79528"
     inkscape:document-units="px"
     inkscape:current-layer="layer1"
     showgrid="false"
     fit-margin-top="0"
     fit-margin-left="0"
     fit-margin-right="0"
     fit-margin-bottom="0"
     inkscape:window-width="1920"
     inkscape:window-height="1034"
     inkscape:window-x="1680"
     inkscape:window-y="24"
     inkscape:window-maximized="1" />
  <metadata
     id="metadata7">
    <rdf:RDF>
      <cc:Work
         rdf:about="">
        <dc:format>image/svg+xml</dc:format>
        <dc:type
           rdf:resource="http://purl.org/dc/dcmitype/StillImage" />
        <dc:title></dc:title>
      </cc:Work>
    </rdf:RDF>
  </metadata>
  <g
     inkscape:label="Layer 1"
     inkscape:groupmode="layer"
     id="layer1"
     transform="translate(-81.6298,-116.40515)">
    <g
       id="g4054">
      <g
         transform="matrix(1.25,0,0,-1.25,539.4423,235.12459)"
         id="g3517">
        <path
           inkscape:connector-curvature="0"
           id="path3519"
           style="fill:none;stroke:#221e1f;stroke-width:0.5;stroke-linecap:butt;stroke-linejoin:miter;stroke-miterlimit:3.86400008;stroke-dasharray:none;stroke-opacity:1"
           d="m 0,0 16,0 0,-106.49" />
        <g
           transform="translate(-182.198,5.5)"
           id="g3521">
          <path
             inkscape:connector-curvature="0"
             id="path3523"
             style="fill:none;stroke:#221e1f;stroke-width:0.5;stroke-linecap:butt;stroke-linejoin:miter;stroke-miterlimit:3.86400008;stroke-dasharray:none;stroke-opacity:1"
             d="m 0,0 0,48.375 159.82,0 0,-44.761" />
          <g
             transform="translate(160.32,-10.654)"
             id="g3525">
            <path
               inkscape:connector-curvature="0"
               id="path3527"
               style="fill:none;stroke:#221e1f;stroke-width:0.5;stroke-linecap:butt;stroke-linejoin:miter;stroke-miterlimit:3.86400008;stroke-dasharray:none;stroke-opacity:1"
               d="m 0,0 0,-28.041 -0.089,0.5 -157.11,0 0,23.695" />
            <g
               transform="translate(-162.32,10.654)"
               id="g3529">
              <path
                 inkscape:connector-curvature="0"
                 id="path3531"
                 style="fill:none;stroke:#221e1f;stroke-width:0.5;stroke-linecap:butt;stroke-linejoin:miter;stroke-miterlimit:3.86400008;stroke-dasharray:none;stroke-opacity:1"
                 d="m 0,0 0,50.375 163.82,0 0,-90.375 -44.122,0" />
            </g>
          </g>
        </g>
      </g>
      <g
         transform="matrix(1.25,0,0,-1.25,369.89979,167.00334)"
         id="g3533">
        <path
           inkscape:connector-curvature="0"
           id="path3535"
           style="fill:#f1f0f0;fill-opacity:1;fill-rule:nonzero;stroke:none"
           d="M 0,0 40.126,-40.125 80.251,0 40.125,40.126" />
      </g>
      <g
         transform="matrix(1.25,0,0,-1.25,369.89979,167.00334)"
         id="g3537">
        <path
           inkscape:connector-curvature="0"
           id="path3539"
           style="fill:none;stroke:#221e1f;stroke-width:0.5;stroke-linecap:butt;stroke-linejoin:miter;stroke-miterlimit:3.86400008;stroke-dasharray:none;stroke-opacity:1"
           d="M 0,0 40.125,40.125 80.251,0 40.126,-40.125 0,0 Z" />
      </g>
      <path
         inkscape:connector-curvature="0"
         id="path3541"
         style="fill:#e7e7e7;fill-opacity:1;fill-rule:nonzero;stroke:none"
         d="m 275.33105,246.09334 66.25,0 0,-17.5 -66.25,0 0,17.5 z" />
      <path
         inkscape:connector-curvature="0"
         id="path3543"
         style="fill:none;stroke:#221e1f;stroke-width:0.625;stroke-linecap:butt;stroke-linejoin:miter;stroke-miterlimit:3.86400008;stroke-dasharray:none;stroke-opacity:1"
         d="m 275.33105,228.59334 66.25,0 0,17.5 -66.25,0 0,-17.5 z" />
      <g
         transform="matrix(1.25,0,0,-1.25,477.7198,216.71834)"
         id="g3545">
        <path
           inkscape:connector-curvature="0"
           id="path3547"
           style="fill:#e7e7e7;fill-opacity:1;fill-rule:nonzero;stroke:none"
           d="m 0,0 51.5,0 0,-20 -51.5,0 0,14" />
      </g>
      <path
         inkscape:connector-curvature="0"
         id="path3549"
         style="fill:none;stroke:#221e1f;stroke-width:0.625;stroke-linecap:butt;stroke-linejoin:miter;stroke-miterlimit:3.86400008;stroke-dasharray:none;stroke-opacity:1"
         d="m 477.7198,216.71834 64.37499,0 0,25 -64.37499,0 0,-25 z" />
      <text
         y="241.29208"
         x="290.33853"
         id="text3551"
         style="font-variant:normal;font-weight:normal;font-size:11.25px;font-family:AkzidenzGroteskBE;-inkscape-font-specification:AkzidenzGroteskBE-Regular;writing-mode:lr-tb;fill:#201d1e;fill-opacity:1;fill-rule:nonzero;stroke:none">
        <tspan
           id="tspan3553"
           sodipodi:role="line"
           y="241.29208"
           x="290.33853 297.38104 305.59354 311.00479 320.37604">ACTOR</tspan>
      </text>
      <text
         y="231.92084"
         x="491.01605"
         id="text3555"
         style="font-variant:normal;font-weight:normal;font-size:11.25px;font-family:AkzidenzGroteskBE;-inkscape-font-specification:AkzidenzGroteskBE-Regular;writing-mode:lr-tb;fill:#201d1e;fill-opacity:1;fill-rule:nonzero;stroke:none">
        <tspan
           id="tspan3557"
           y="231.92084"
           x="491.01605">M</tspan>
      </text>
      <text
         y="231.92084"
         x="500.3873"
         id="text3559"
         style="font-variant:normal;font-weight:normal;font-size:11.25px;font-family:AkzidenzGroteskBE;-inkscape-font-specification:AkzidenzGroteskBE-Regular;writing-mode:lr-tb;fill:#201d1e;fill-opacity:1;fill-rule:nonzero;stroke:none">
        <tspan
           id="tspan3561"
           sodipodi:role="line"
           y="231.92084"
           x="500.3873 509.2973 516.09229 519.14105">OVIE</tspan>
      </text>
      <g
         transform="matrix(1.25,0,0,-1.25,375.24105,276.71834)"
         id="g3563">
        <path
           inkscape:connector-curvature="0"
           id="path3565"
           style="fill:#f1f0f0;fill-opacity:1;fill-rule:nonzero;stroke:none"
           d="M 0,0 36.284,28.284 72.568,0 36.284,-28.285" />
      </g>
      <g
         transform="matrix(1.25,0,0,-1.25,375.24105,276.71834)"
         id="g3567">
        <path
           inkscape:connector-curvature="0"
           id="path3569"
           style="fill:none;stroke:#221e1f;stroke-width:0.5;stroke-linecap:butt;stroke-linejoin:miter;stroke-miterlimit:3.86400008;stroke-dasharray:none;stroke-opacity:1"
           d="M 0,0 36.284,28.284 72.568,0 36.284,-28.285 0,0 Z" />
      </g>
      <text
         y="280.66821"
         x="387.5148"
         id="text3571"
         style="font-variant:normal;font-weight:normal;font-size:11.25px;font-family:AkzidenzGroteskBE;-inkscape-font-specification:AkzidenzGroteskBE-Regular;writing-mode:lr-tb;fill:#201d1e;fill-opacity:1;fill-rule:nonzero;stroke:none">
        <tspan
           id="tspan3573"
           sodipodi:role="line"
           y="280.66821"
           x="387.5148 393.37604 400.17105 407.43854 415.40356 421.02856 428.76855 438.1398 444.00104">LEAD_ROLE</tspan>
        <tspan
           id="tspan3575"
           sodipodi:role="line"
           y="169.41698"
           x="380.4498 387.71729 394.9848 402.96106 409.05856 418.42981">PERFOR</tspan>
      </text>
      <text
         y="169.41696"
         x="426.40604"
         id="text3577"
         style="font-variant:normal;font-weight:normal;font-size:11.25px;font-family:AkzidenzGroteskBE;-inkscape-font-specification:AkzidenzGroteskBE-Regular;writing-mode:lr-tb;fill:#201d1e;fill-opacity:1;fill-rule:nonzero;stroke:none">
        <tspan
           id="tspan3579"
           y="169.41696"
           x="426.40604">M</tspan>
      </text>
      <text
         y="169.41696"
         x="435.77728"
         id="text3581"
         style="font-variant:normal;font-weight:normal;font-size:11.25px;font-family:AkzidenzGroteskBE;-inkscape-font-specification:AkzidenzGroteskBE-Regular;writing-mode:lr-tb;fill:#201d1e;fill-opacity:1;fill-rule:nonzero;stroke:none">
        <tspan
           id="tspan3583"
           sodipodi:role="line"
           y="169.41696"
           x="435.77728 443.28104 448.90604 451.9548">S_IN</tspan>
      </text>
      <g
         transform="matrix(1.25,0,0,-1.25,541.9423,232.62459)"
         id="g3585">
        <path
           inkscape:connector-curvature="0"
           id="path3587"
           style="fill:none;stroke:#221e1f;stroke-width:0.5;stroke-linecap:butt;stroke-linejoin:miter;stroke-miterlimit:3.86400008;stroke-dasharray:none;stroke-opacity:1"
           d="m 0,0 16,0 0,-106.99" />
      </g>
      <g
         transform="matrix(1.25,0,0,-1.25,521.11354,391.95209)"
         id="g3589">
        <path
           inkscape:connector-curvature="0"
           id="path3591"
           style="fill:#f1f0f0;fill-opacity:1;fill-rule:nonzero;stroke:none"
           d="M 0,0 32.035,24.971 64.069,0 32.035,-24.972" />
      </g>
      <g
         transform="matrix(1.25,0,0,-1.25,521.11354,391.95209)"
         id="g3593">
        <path
           inkscape:connector-curvature="0"
           id="path3595"
           style="fill:none;stroke:#221e1f;stroke-width:0.5;stroke-linecap:butt;stroke-linejoin:miter;stroke-miterlimit:3.86400008;stroke-dasharray:none;stroke-opacity:1"
           d="M 0,0 32.035,24.971 64.069,0 32.035,-24.972 0,0 Z" />
      </g>
      <text
         y="396.29333"
         x="536.88977"
         id="text3597"
         style="font-variant:normal;font-weight:normal;font-size:11.25px;font-family:AkzidenzGroteskBE;-inkscape-font-specification:AkzidenzGroteskBE-Regular;writing-mode:lr-tb;fill:#201d1e;fill-opacity:1;fill-rule:nonzero;stroke:none">
        <tspan
           id="tspan3599"
           sodipodi:role="line"
           y="396.29333"
           x="536.88977 545.09106 548.13977 556.11603 563.14728 571.3598 577.2323">DIRECTS</tspan>
      </text>
      <g
         transform="matrix(1.25,0,0,-1.25,303.19229,245.75084)"
         id="g3601">
        <path
           inkscape:connector-curvature="0"
           id="path3603"
           style="fill:none;stroke:#221e1f;stroke-width:0.5;stroke-linecap:butt;stroke-linejoin:miter;stroke-miterlimit:3.86400008;stroke-dasharray:none;stroke-opacity:1"
           d="m 0,0 0,-117 174.337,0" />
      </g>
      <path
         inkscape:connector-curvature="0"
         id="path3605"
         style="fill:#e7e7e7;fill-opacity:1;fill-rule:nonzero;stroke:none"
         d="m 258.69479,400.37084 87.02375,0 0,-17.5 -87.02375,0 0,17.5 z" />
      <path
         inkscape:connector-curvature="0"
         id="path3607"
         style="fill:none;stroke:#221e1f;stroke-width:0.625;stroke-linecap:butt;stroke-linejoin:miter;stroke-miterlimit:3.86400008;stroke-dasharray:none;stroke-opacity:1"
         d="m 258.69479,382.87084 87.02375,0 0,17.5 -87.02375,0 0,-17.5 z" />
      <text
         y="395.56946"
         x="274.57355"
         id="text3609"
         style="font-variant:normal;font-weight:normal;font-size:11.25px;font-family:AkzidenzGroteskBE;-inkscape-font-specification:AkzidenzGroteskBE-Regular;writing-mode:lr-tb;fill:#201d1e;fill-opacity:1;fill-rule:nonzero;stroke:none">
        <tspan
           id="tspan3611"
           sodipodi:role="line"
           y="395.56946"
           x="274.57355 282.77478 285.82355 293.7998 300.83105 309.04355 314.44354 323.81479">DIRECTOR</tspan>
      </text>
      <g
         transform="matrix(1.25,0,0,-1.25,258.36604,329.21834)"
         id="g3613">
        <path
           inkscape:connector-curvature="0"
           id="path3615"
           style="fill:#f1f0f0;fill-opacity:1;fill-rule:nonzero;stroke:none"
           d="M 0,0 36.284,28.284 72.568,0 36.284,-28.285" />
      </g>
      <g
         transform="matrix(1.25,0,0,-1.25,258.36604,329.21834)"
         id="g3617">
        <path
           inkscape:connector-curvature="0"
           id="path3619"
           style="fill:none;stroke:#221e1f;stroke-width:0.5;stroke-linecap:butt;stroke-linejoin:miter;stroke-miterlimit:3.86400008;stroke-dasharray:none;stroke-opacity:1"
           d="M 0,0 36.284,28.284 72.568,0 36.284,-28.285 0,0 Z" />
      </g>
      <text
         y="324.41821"
         x="279.61603"
         id="text3621"
         style="font-variant:normal;font-weight:normal;font-size:11.25px;font-family:AkzidenzGroteskBE;-inkscape-font-specification:AkzidenzGroteskBE-Regular;writing-mode:lr-tb;fill:#201d1e;fill-opacity:1;fill-rule:nonzero;stroke:none">
        <tspan
           id="tspan3623"
           sodipodi:role="line"
           y="324.41821"
           x="279.61603 286.88354 292.51978 300.2598 309.39478 315.01978 322.28729">ALSO_A_</tspan>
        <tspan
           id="tspan3625"
           sodipodi:role="line"
           y="338.16571"
           x="275.38605 283.58728 286.63605 294.6123 301.64355 309.85605 315.25604 324.62729">DIRECTOR</tspan>
      </text>
      <g
         transform="matrix(1.25,0,0,-1.25,275.06729,236.99959)"
         id="g3627">
        <path
           inkscape:connector-curvature="0"
           id="path3629"
           style="fill:none;stroke:#221e1f;stroke-width:0.5;stroke-linecap:butt;stroke-linejoin:miter;stroke-miterlimit:3.86400008;stroke-dasharray:none;stroke-opacity:1"
           d="m 0,0 -52,0 0,-174.5 332,0 0,185 -66.378,0" />
        <g
           transform="translate(187,-172.5)"
           id="g3631">
          <path
             inkscape:connector-curvature="0"
             id="path3633"
             style="fill:none;stroke:#221e1f;stroke-width:0.5;stroke-linecap:butt;stroke-linejoin:miter;stroke-miterlimit:3.86400008;stroke-dasharray:none;stroke-opacity:1"
             d="m 0,0 91,0 0,181 -64.5,0" />
        </g>
      </g>
      <g
         transform="matrix(1.25,0,0,-1.25,467.36354,454.45209)"
         id="g3635">
        <path
           inkscape:connector-curvature="0"
           id="path3637"
           style="fill:#f1f0f0;fill-opacity:1;fill-rule:nonzero;stroke:none"
           d="M 0,0 35.242,27.471 70.483,0 35.242,-27.472" />
      </g>
      <g
         transform="matrix(1.25,0,0,-1.25,467.36354,454.45209)"
         id="g3639">
        <path
           inkscape:connector-curvature="0"
           id="path3641"
           style="fill:none;stroke:#221e1f;stroke-width:0.5;stroke-linecap:butt;stroke-linejoin:miter;stroke-miterlimit:3.86400008;stroke-dasharray:none;stroke-opacity:1"
           d="M 0,0 35.242,27.471 70.483,0 35.242,-27.472 0,0 Z" />
      </g>
      <text
         y="458.16833"
         x="480.6398"
         id="text3643"
         style="font-variant:normal;font-weight:normal;font-size:11.25px;font-family:AkzidenzGroteskBE;-inkscape-font-specification:AkzidenzGroteskBE-Regular;writing-mode:lr-tb;fill:#201d1e;fill-opacity:1;fill-rule:nonzero;stroke:none">
        <tspan
           id="tspan3645"
           sodipodi:role="line"
           y="458.16833"
           x="480.6398 487.90729 495.64731 505.01855 513.21979 521.19604 529.86981 536.90106">PRODUCES</tspan>
      </text>
      <path
         inkscape:connector-curvature="0"
         id="path3647"
         style="fill:#e7e7e7;fill-opacity:1;fill-rule:nonzero;stroke:none"
         d="m 258.69479,463.49584 87.02375,0 0,-17.5 -87.02375,0 0,17.5 z" />
      <path
         inkscape:connector-curvature="0"
         id="path3649"
         style="fill:none;stroke:#221e1f;stroke-width:0.625;stroke-linecap:butt;stroke-linejoin:miter;stroke-miterlimit:3.86400008;stroke-dasharray:none;stroke-opacity:1"
         d="m 258.69479,445.99584 87.02375,0 0,17.5 -87.02375,0 0,-17.5 z" />
      <text
         y="458.69458"
         x="270.82355"
         id="text3651"
         style="font-variant:normal;font-weight:normal;font-size:11.25px;font-family:AkzidenzGroteskBE;-inkscape-font-specification:AkzidenzGroteskBE-Regular;writing-mode:lr-tb;fill:#201d1e;fill-opacity:1;fill-rule:nonzero;stroke:none">
        <tspan
           id="tspan3653"
           sodipodi:role="line"
           y="458.69458"
           x="270.82355 278.09103 285.83105 295.2023 303.40353 311.37979 320.05353 327.32104">PRODUCER</tspan>
      </text>
      <g
         transform="matrix(1.25,0,0,-1.25,164.61604,353.59334)"
         id="g3655">
        <path
           inkscape:connector-curvature="0"
           id="path3657"
           style="fill:#f1f0f0;fill-opacity:1;fill-rule:nonzero;stroke:none"
           d="M 0,0 36.284,28.284 72.568,0 36.284,-28.285" />
      </g>
      <g
         transform="matrix(1.25,0,0,-1.25,164.61604,353.59334)"
         id="g3659">
        <path
           inkscape:connector-curvature="0"
           id="path3661"
           style="fill:none;stroke:#221e1f;stroke-width:0.5;stroke-linecap:butt;stroke-linejoin:miter;stroke-miterlimit:3.86400008;stroke-dasharray:none;stroke-opacity:1"
           d="M 0,0 36.284,28.284 72.568,0 36.284,-28.285 0,0 Z" />
      </g>
      <text
         y="346.91821"
         x="188.43478"
         id="text3663"
         style="font-variant:normal;font-weight:normal;font-size:11.25px;font-family:AkzidenzGroteskBE;-inkscape-font-specification:AkzidenzGroteskBE-Regular;writing-mode:lr-tb;fill:#201d1e;fill-opacity:1;fill-rule:nonzero;stroke:none">
        <tspan
           id="tspan3665"
           sodipodi:role="line"
           y="346.91821"
           x="188.43478 195.47729 203.68979 209.10104 218.47229 225.97604">ACTOR_</tspan>
        <tspan
           id="tspan3667"
           sodipodi:role="line"
           y="360.66571"
           x="178.01729 185.28479 193.0248 202.39604 210.59729 218.57355 227.24728 234.51479">PRODUCER</tspan>
        <tspan
           id="tspan3669"
           y="315.66571"
           x="199.08855">1</tspan>
        <tspan
           id="tspan3671"
           y="289.41946"
           x="293.46478">1</tspan>
        <tspan
           id="tspan3673"
           y="400.04071"
           x="200.3373">1</tspan>
        <tspan
           id="tspan3675"
           y="373.79446"
           x="293.46478">1</tspan>
        <tspan
           id="tspan3677"
           y="387.54196"
           x="512.83978">1</tspan>
      </text>
      <text
         y="160.04446"
         x="360.33478"
         id="text3679"
         style="font-variant:normal;font-weight:normal;font-size:11.25px;font-family:AkzidenzGroteskBE;-inkscape-font-specification:AkzidenzGroteskBE-Regular;writing-mode:lr-tb;fill:#201d1e;fill-opacity:1;fill-rule:nonzero;stroke:none">
        <tspan
           id="tspan3681"
           y="160.04446"
           x="360.33478">M</tspan>
        <tspan
           id="tspan3683"
           y="451.29572"
           x="453.46228">M</tspan>
      </text>
      <text
         y="289.41946"
         x="365.34103"
         id="text3685"
         style="font-variant:normal;font-weight:normal;font-size:11.25px;font-family:AkzidenzGroteskBE;-inkscape-font-specification:AkzidenzGroteskBE-Regular;writing-mode:lr-tb;fill:#201d1e;fill-opacity:1;fill-rule:nonzero;stroke:none">
        <tspan
           id="tspan3687"
           y="289.41946"
           x="365.34103">2</tspan>
        <tspan
           id="tspan3689"
           y="291.91696"
           x="468.46979">N</tspan>
        <tspan
           id="tspan3691"
           y="354.42197"
           x="565.34357">N</tspan>
        <tspan
           id="tspan3693"
           y="447.54947"
           x="560.34851">N</tspan>
        <tspan
           id="tspan3695"
           y="160.67445"
           x="476.60355">N</tspan>
      </text>
      <text
         y="475.45059"
         x="81.649796"
         id="text3697"
         style="font-variant:normal;font-weight:bold;font-size:11.25px;font-family:AkzidenzGroteskBE;-inkscape-font-specification:AkzidenzGroteskBE-Bold;writing-mode:lr-tb;fill:#201d1e;fill-opacity:1;fill-rule:nonzero;stroke:none">
        <tspan
           id="tspan3699"
           sodipodi:role="line"
           y="475.45059"
           x="81.649796 88.681046 91.966042 98.761047 105.55605 109.7748 116.33354 119.38229 125.7048 128.51729 134.8398">Figure 3.25</tspan>
      </text>
      <text
         y="489.19809"
         x="81.649796"
         id="text3701"
         style="font-variant:normal;font-weight:300;font-size:11.25px;font-family:AkzidenzGroteskBE;-inkscape-font-specification:AkzidenzGroteskBE-Light;writing-mode:lr-tb;fill:#201d1e;fill-opacity:1;fill-rule:nonzero;stroke:none">
        <tspan
           id="tspan3703"
           sodipodi:role="line"
           y="489.19809"
           x="81.649796 88.917297 94.778542 97.827293 104.62229 111.88979 114.93855 120.7998 123.13979 128.7648 134.86229 138.38354 144.00854 152.6823 155.73105 159.25229 165.11356 168.6348 171.68355 177.30855 180.3573 189.2673 197.2323 204.0273 206.60355 213.39854 220.19354 223.24229 229.10355 234.72855 238.01355 243.63855 249.49979 255.12479 260.27728 266.13855 269.18729 274.33978 279.72855 285.58978 291.45105 300.12479 305.74979">An ER diagram for a MOVIES database schema.</tspan>
      </text>
      <g
         transform="matrix(1.25,0,0,-1.25,625.3798,501.92959)"
         id="g3705">
        <path
           inkscape:connector-curvature="0"
           id="path3707"
           style="fill:none;stroke:#201d1e;stroke-width:0.5;stroke-linecap:butt;stroke-linejoin:miter;stroke-miterlimit:4;stroke-dasharray:none;stroke-opacity:1"
           d="M 0,0 -435,0" />
      </g>
    </g>
  </g>
</svg>
